{
	"asset":{
		"generator":"Khronos glTF Blender I/O v4.0.43",
		"version":"2.0"
	},
	"scene":0,
	"scenes":[
		{
			"name":"Scene",
			"nodes":[
				0,
				1,
				2,
				3
			]
		}
	],
	"nodes":[
		{
			"mesh":0,
			"name":"Tree_Spruce_small_02",
			"translation":[
				23.71807098388672,
				0,
				1.8224563598632812
			]
		},
		{
			"mesh":1,
			"name":"Tree_Spruce_tiny_01",
			"translation":[
				-7.526187896728516,
				0,
				1.8224563598632812
			]
		},
		{
			"mesh":2,
			"name":"Tree_Spruce_tiny_02",
			"translation":[
				0.3696250915527344,
				0,
				1.8224563598632812
			]
		},
		{
			"mesh":3,
			"name":"Tree_Spruce_small_01",
			"translation":[
				11.073844909667969,
				0,
				1.8224563598632812
			]
		}
	],
	"materials":[
		{
			"doubleSided":true,
			"name":"AllColors_Material",
			"pbrMetallicRoughness":{
				"metallicFactor":0,
				"roughnessFactor":0.4000000059604645
			}
		}
	],
	"meshes":[
		{
			"name":"Cylinder.003",
			"primitives":[
				{
					"attributes":{
						"POSITION":0,
						"NORMAL":1,
						"TEXCOORD_0":2
					},
					"indices":3,
					"material":0
				}
			]
		},
		{
			"name":"Cylinder.012",
			"primitives":[
				{
					"attributes":{
						"POSITION":4,
						"NORMAL":5,
						"TEXCOORD_0":6
					},
					"indices":7,
					"material":0
				}
			]
		},
		{
			"name":"Cylinder.014",
			"primitives":[
				{
					"attributes":{
						"POSITION":8,
						"NORMAL":9,
						"TEXCOORD_0":10
					},
					"indices":11,
					"material":0
				}
			]
		},
		{
			"name":"Cylinder.016",
			"primitives":[
				{
					"attributes":{
						"POSITION":12,
						"NORMAL":13,
						"TEXCOORD_0":14
					},
					"indices":15,
					"material":0
				}
			]
		}
	],
	"accessors":[
		{
			"bufferView":0,
			"componentType":5126,
			"count":762,
			"max":[
				5.307240009307861,
				18.245336532592773,
				5.592296123504639
			],
			"min":[
				-5.814762115478516,
				0,
				-5.647213935852051
			],
			"type":"VEC3"
		},
		{
			"bufferView":1,
			"componentType":5126,
			"count":762,
			"type":"VEC3"
		},
		{
			"bufferView":2,
			"componentType":5126,
			"count":762,
			"type":"VEC2"
		},
		{
			"bufferView":3,
			"componentType":5123,
			"count":1098,
			"type":"SCALAR"
		},
		{
			"bufferView":4,
			"componentType":5126,
			"count":634,
			"max":[
				2.886451244354248,
				11.005311965942383,
				2.757803440093994
			],
			"min":[
				-2.543914794921875,
				0,
				-2.743320941925049
			],
			"type":"VEC3"
		},
		{
			"bufferView":5,
			"componentType":5126,
			"count":634,
			"type":"VEC3"
		},
		{
			"bufferView":6,
			"componentType":5126,
			"count":634,
			"type":"VEC2"
		},
		{
			"bufferView":7,
			"componentType":5123,
			"count":906,
			"type":"SCALAR"
		},
		{
			"bufferView":8,
			"componentType":5126,
			"count":634,
			"max":[
				3.916187286376953,
				10.98141098022461,
				3.684375047683716
			],
			"min":[
				-3.7490744590759277,
				0,
				-3.8950767517089844
			],
			"type":"VEC3"
		},
		{
			"bufferView":9,
			"componentType":5126,
			"count":634,
			"type":"VEC3"
		},
		{
			"bufferView":10,
			"componentType":5126,
			"count":634,
			"type":"VEC2"
		},
		{
			"bufferView":11,
			"componentType":5123,
			"count":906,
			"type":"SCALAR"
		},
		{
			"bufferView":12,
			"componentType":5126,
			"count":762,
			"max":[
				5.079797744750977,
				18.25551986694336,
				5.0340895652771
			],
			"min":[
				-5.497369766235352,
				0,
				-5.2268900871276855
			],
			"type":"VEC3"
		},
		{
			"bufferView":13,
			"componentType":5126,
			"count":762,
			"type":"VEC3"
		},
		{
			"bufferView":14,
			"componentType":5126,
			"count":762,
			"type":"VEC2"
		},
		{
			"bufferView":15,
			"componentType":5123,
			"count":1098,
			"type":"SCALAR"
		}
	],
	"bufferViews":[
		{
			"buffer":0,
			"byteLength":9144,
			"byteOffset":0,
			"target":34962
		},
		{
			"buffer":0,
			"byteLength":9144,
			"byteOffset":9144,
			"target":34962
		},
		{
			"buffer":0,
			"byteLength":6096,
			"byteOffset":18288,
			"target":34962
		},
		{
			"buffer":0,
			"byteLength":2196,
			"byteOffset":24384,
			"target":34963
		},
		{
			"buffer":0,
			"byteLength":7608,
			"byteOffset":26580,
			"target":34962
		},
		{
			"buffer":0,
			"byteLength":7608,
			"byteOffset":34188,
			"target":34962
		},
		{
			"buffer":0,
			"byteLength":5072,
			"byteOffset":41796,
			"target":34962
		},
		{
			"buffer":0,
			"byteLength":1812,
			"byteOffset":46868,
			"target":34963
		},
		{
			"buffer":0,
			"byteLength":7608,
			"byteOffset":48680,
			"target":34962
		},
		{
			"buffer":0,
			"byteLength":7608,
			"byteOffset":56288,
			"target":34962
		},
		{
			"buffer":0,
			"byteLength":5072,
			"byteOffset":63896,
			"target":34962
		},
		{
			"buffer":0,
			"byteLength":1812,
			"byteOffset":68968,
			"target":34963
		},
		{
			"buffer":0,
			"byteLength":9144,
			"byteOffset":70780,
			"target":34962
		},
		{
			"buffer":0,
			"byteLength":9144,
			"byteOffset":79924,
			"target":34962
		},
		{
			"buffer":0,
			"byteLength":6096,
			"byteOffset":89068,
			"target":34962
		},
		{
			"buffer":0,
			"byteLength":2196,
			"byteOffset":95164,
			"target":34963
		}
	],
	"buffers":[
		{
			"byteLength":97360,
			"uri":"trees.bin"
		}
	]
}
